<svg width="184" height="183" viewBox="0 0 184 183" fill="none" xmlns="http://www.w3.org/2000/svg">
<g filter="url(#filter0_d_1817_1333)">
<rect x="44" y="24" width="95" height="95" rx="47.5" fill="#13C568" shape-rendering="crispEdges"/>
<circle opacity="0.1" cx="92" cy="71.5" r="47.5" fill="#133585"/>
<path d="M118.5 76.4654L118.501 88.1841C118.5 88.5782 118.289 88.9425 117.947 89.1382L107.694 94.997C107.678 95.0061 107.659 95.0025 107.642 95.0106C107.336 95.1851 106.961 95.1851 106.655 95.0106C106.639 95.0025 106.619 95.0061 106.603 94.997L96.3505 89.1382C96.008 88.9425 95.7969 88.5782 95.7969 88.1841V76.4654C95.7969 76.4477 95.8096 76.4337 95.81 76.416C95.8127 76.2425 95.858 76.0722 95.9409 75.9204L95.9441 75.9168C95.9477 75.9104 95.9545 75.9068 95.9586 75.9005C96.0465 75.7591 96.1661 75.6404 96.3079 75.5534C96.3251 75.5425 96.3324 75.5217 96.3505 75.5113L106.604 69.652C106.941 69.459 107.356 69.459 107.694 69.652L117.947 75.5113C117.965 75.5213 117.972 75.5421 117.989 75.553C118.132 75.6404 118.251 75.7591 118.339 75.9005C118.343 75.9068 118.35 75.9104 118.353 75.9168L118.356 75.9204C118.439 76.0726 118.485 76.2425 118.487 76.416C118.488 76.4332 118.5 76.4473 118.5 76.4654ZM106.05 82.9622L97.9938 78.3583V87.5462L106.05 92.1495V82.9622ZM115.188 76.4649L107.149 71.8715L99.1098 76.4649L107.149 81.0588L115.188 76.4649ZM116.304 78.3582L108.247 82.962V92.1494L116.303 87.5461L116.304 78.3582Z" fill="#F4FBFF"/>
<path d="M77.1633 66.988L75.0105 69.1408L77.1633 71.2937C77.5924 71.7222 77.5924 72.4181 77.1633 72.8468C76.7343 73.2758 76.0389 73.2758 75.6098 72.8468L72.6803 69.9173C72.4746 69.7117 72.3582 69.4321 72.3582 69.1408C72.3582 68.8495 72.4742 68.57 72.6799 68.3638L75.6093 65.4344C76.0383 65.0054 76.7342 65.0054 77.1633 65.4344C77.5924 65.8634 77.5924 66.5589 77.1633 66.988ZM88.882 65.4345C88.4529 65.0054 87.7575 65.0054 87.3284 65.4345C86.8994 65.8635 86.8994 66.5589 87.3284 66.988L89.4812 69.1408L87.3284 71.2937C86.8994 71.7222 86.8994 72.4181 87.3284 72.8468C87.7575 73.2758 88.4529 73.2758 88.882 72.8468L91.8114 69.9173C92.0175 69.7117 92.1335 69.4321 92.1335 69.1408C92.1335 68.8495 92.0175 68.57 91.8114 68.3638L88.882 65.4345ZM82.6454 63.0148L79.7159 74.7334C79.6448 75.0161 79.6892 75.3156 79.8392 75.5652C79.9891 75.8153 80.232 75.9952 80.5147 76.0663C80.6021 76.088 80.6918 76.0989 80.782 76.0989C81.2857 76.0984 81.7247 75.7555 81.8471 75.2671L84.7765 63.5484C84.9242 62.9599 84.5663 62.3632 83.9778 62.2161C83.3893 62.0688 82.7925 62.4262 82.6454 63.0148ZM92.1336 91.1122C92.1332 91.7188 91.6416 92.2108 91.035 92.2108H71.9933C70.5367 92.209 69.1404 91.63 68.1106 90.6002C67.0808 89.5704 66.5019 88.1741 66.5 86.718V54.4928C66.5018 53.0367 67.0813 51.6404 68.1111 50.6106C69.1404 49.5808 70.5367 49.0014 71.9933 49H110.078C111.534 49.0014 112.93 49.5808 113.96 50.6106C114.99 51.6404 115.569 53.0367 115.571 54.4928V67.6763C115.571 68.283 115.079 68.7745 114.472 68.7745C113.865 68.7745 113.374 68.283 113.374 67.6763V58.5211H68.6981V86.7182C68.699 87.5917 69.0465 88.4294 69.6645 89.0473C70.2824 89.6653 71.1201 90.0128 71.994 90.0137H91.0357C91.6423 90.0141 92.1332 90.5055 92.1336 91.1122ZM68.6974 56.3238H113.373V54.4931C113.372 53.6192 113.025 52.781 112.407 52.1635C111.789 51.5456 110.952 51.1981 110.078 51.1972H71.9931C71.1192 51.1981 70.2815 51.5456 69.6636 52.1635C69.0456 52.781 68.6981 53.6187 68.6972 54.4926L68.6974 56.3238Z" fill="#F4FBFF"/>
</g>
<defs>
<filter id="filter0_d_1817_1333" x="0" y="0" width="183.5" height="183" filterUnits="userSpaceOnUse" color-interpolation-filters="sRGB">
<feFlood flood-opacity="0" result="BackgroundImageFix"/>
<feColorMatrix in="SourceAlpha" type="matrix" values="0 0 0 0 0 0 0 0 0 0 0 0 0 0 0 0 0 0 127 0" result="hardAlpha"/>
<feOffset dy="20"/>
<feGaussianBlur stdDeviation="22"/>
<feComposite in2="hardAlpha" operator="out"/>
<feColorMatrix type="matrix" values="0 0 0 0 0.199653 0 0 0 0 0.416667 0 0 0 0 0.303054 0 0 0 0.08 0"/>
<feBlend mode="normal" in2="BackgroundImageFix" result="effect1_dropShadow_1817_1333"/>
<feBlend mode="normal" in="SourceGraphic" in2="effect1_dropShadow_1817_1333" result="shape"/>
</filter>
</defs>
</svg>
